<?xml version="1.0" encoding="utf-8"?>
<svg viewBox="0 0 500 500" xmlns="http://www.w3.org/2000/svg">
  <path d="M 489.746 239.746 C 493.164 243.164 496.299 250 489.489 250 C 473.782 250 441.534 250 400 250 L 400 480 C 400 491.046 391.046 500 380 500 L 120 500 C 108.954 500 100 491.046 100 480 L 100 250 C 67.388 250 36.958 250 10.742 250 C 7.161 250 5.534 244.466 8.301 241.699 C 79.892 170.108 215.099 34.901 244.335 5.665 C 248 2 251.983 1.983 255.619 5.619 C 284.619 34.619 418.734 168.734 489.746 239.746 Z M 150 290 L 240 290 L 240 200 L 150 200 Z M 260 200 L 260 290 L 350 290 L 350 200 Z M 350 310 L 260 310 L 260 400 L 350 400 Z M 240 400 L 240 310 L 150 310 L 150 400 Z" style="fill: rgb(255, 255, 255);"/>
  <!-- Made By Manuel Schultz -->
</svg>