<?xml version="1.0" encoding="utf-8"?>
<svg viewBox="0 0 500 500" xmlns="http://www.w3.org/2000/svg">
  <path d="M 371.46 348.358 C 380.553 357.53 389.646 357.53 398.739 348.358 L 495.454 250.802 C 504.547 241.63 500 237.044 481.814 237.044 L 425.499 237.044 C 423.413 204.475 413.846 172.758 397.467 144.389 C 315.686 2.738 111.231 2.738 29.449 144.389 C -52.332 286.039 49.895 463.102 213.458 463.102 L 213.458 380.985 C 190.576 380.985 168.096 374.962 148.279 363.52 C 61.373 313.345 61.373 187.907 148.279 137.732 C 231.193 89.862 333.884 144.753 343.142 237.044 L 288.385 237.044 C 270.199 237.044 265.652 241.63 274.745 250.802 L 371.46 348.358 Z" style="fill: rgb(255, 255, 255);"/>
</svg>