<?xml version="1.0" encoding="utf-8"?>
<svg viewBox="0 0 500 500" xmlns="http://www.w3.org/2000/svg">
  <path d="M 360 30 L 360 140 L 260 140 L 260 100 L 100 100 L 100 260 L 140 260 L 140 360 L 30 360 C 13.431 360 0 346.569 0 330 L 0 30 C 0 13.431 13.431 0 30 0 L 330 0 C 346.569 0 360 13.431 360 30 Z" style="fill: rgb(255, 255, 255);"></path>
  <path d="M 500 170 L 500 470 C 500 486.569 486.569 500 470 500 L 170 500 C 153.431 500 140 486.569 140 470 L 140 170 C 140 153.431 153.431 140 170 140 L 470 140 C 486.569 140 500 153.431 500 170 Z M 400 400 L 400 240 L 240 240 L 240 400 L 400 400 Z" style="fill: rgb(255, 255, 255);"></path>
  <!-- Made By Manuel Schultz -->
</svg>
